<?xml version="1.0" encoding="utf-8"?>
<!-- Generator: Adobe Illustrator 26.2.1, SVG Export Plug-In . SVG Version: 6.00 Build 0)  -->
<svg version="1.1" id="exportSvg" xmlns="http://www.w3.org/2000/svg" xmlns:xlink="http://www.w3.org/1999/xlink" x="0px" y="0px"
	 viewBox="0 0 600 400" style="enable-background:new 0 0 600 400;" xml:space="preserve">
<style type="text/css">
	.st0{clip-path:url(#SVGID_00000083784590685207456420000009670706664138591131_);}
	.st1{clip-path:url(#SVGID_00000045590703237884051000000003392262469538483374_);}
	.st2{opacity:0.29;}
	.st3{fill:none;stroke:#CDF449;}
	.st4{fill:#441957;}
	.st5{fill:#CDF449;}
	.st6{fill:#FFFFFF;}
	.st7{font-family:'Renogare-Regular';}
	.st8{font-size:11px;}
	.st9{fill:none;stroke:#181818;stroke-linecap:square;}
	.st10{clip-path:url(#SVGID_00000011733798323880881550000017873394972589956270_);}
	.st11{font-family:'PopoftheTops';}
	.st12{font-size:8px;}
	.st13{clip-path:url(#SVGID_00000034077449290527389620000012969211589224884382_);}
	.st14{fill:#E369D3;}
	.st15{fill:#D3F560;}
	.st16{fill:#5C366C;}
</style>
<g>
	<g>
		<g>
			<defs>
				<rect id="SVGID_1_" width="600" height="400"/>
			</defs>
			<clipPath id="SVGID_00000063619115832528514560000013720733584338535069_">
				<use xlink:href="#SVGID_1_"  style="overflow:visible;"/>
			</clipPath>
			<g id="__svelte-dw-svg" style="clip-path:url(#SVGID_00000063619115832528514560000013720733584338535069_);">
				<g id="header-svg">
				</g>
				<g id="chart-svg">
					<g>
						<g>
							<defs>
								<rect id="SVGID_00000040564663283656759240000005575105736704690837_" y="70" width="600" height="332"/>
							</defs>
							<clipPath id="SVGID_00000114070389909946158690000012843184301059251858_">
								<use xlink:href="#SVGID_00000040564663283656759240000005575105736704690837_"  style="overflow:visible;"/>
							</clipPath>
							
								<g id="svg-main-svg" transform="translate(0.00000, 35.00000)" style="clip-path:url(#SVGID_00000114070389909946158690000012843184301059251858_);">
								<g id="group-svg" transform="translate(42.3125, 27)">
									<g id="y-grid-lines-svg_grid-y-svg_datawrapper-R1tBb-1fn7900-svg" class="st2">
										<line class="st3" x1="0" y1="241.1" x2="555.7" y2="241.1"/>
										<line class="st3" x1="0" y1="197.1" x2="555.7" y2="197.1"/>
										<line class="st3" x1="0" y1="153.2" x2="555.7" y2="153.2"/>
										<line class="st3" x1="0" y1="109.2" x2="555.7" y2="109.2"/>
										<line class="st3" x1="0" y1="65.3" x2="555.7" y2="65.3"/>
										<line class="st3" x1="0" y1="21.3" x2="555.7" y2="21.3"/>
									</g>
									<path id="Recycled" class="st4" d="M9.7,285h92.5h92.5h92.5h92.5H426h46.2h46.2h18.5h9.2v-37.1l-9.2-1.1l-18.5,1.1
										l-46.2,9.7H426l-46.3,7.7l-92.5,8.4l-92.5,8.1l-92.5,2L9.7,284L9.7,285L9.7,285z"/>
									<path id="Combustion_with_Energy_Recovery" class="st5" d="M102.1,283.7l92.5-2l92.5-8.1l92.5-8.4l46.3-7.7h46.2l46.2-9.7
										l18.5-1.1l9.2,1.1v-48.6h-9.2l-18.5,4.4L472.1,227l-46.2,4l-46.3,10.5l-92.5,19.1l-92.5,20l-92.5,2.9
										C102.1,283.5,102.1,283.7,102.1,283.7z"/>
									<g id="x-tick-labels-svg_grid-x-svg_date-axis-svg_datawrapper-R1tBb-63wp0p-svg" transform="translate(0, 290)">
										<text transform="matrix(1 0 0 1 -3.824 12)" class="st6 st7 st8">1960</text>
										<text transform="matrix(1 0 0 1 42.4338 12)" class="st6 st7 st8">1965</text>
										<text transform="matrix(1 0 0 1 88.6662 12)" class="st6 st7 st8">1970</text>
										<text transform="matrix(1 0 0 1 134.8987 12)" class="st6 st7 st8">1975</text>
										<text transform="matrix(1 0 0 1 181.1311 12)" class="st6 st7 st8">1980</text>
										<text transform="matrix(1 0 0 1 227.3889 12)" class="st6 st7 st8">1985</text>
										<text transform="matrix(1 0 0 1 273.6213 12)" class="st6 st7 st8">1990</text>
										<text transform="matrix(1 0 0 1 319.8537 12)" class="st6 st7 st8">1995</text>
										<text transform="matrix(1 0 0 1 366.0862 12)" class="st6 st7 st8">2000</text>
										<text transform="matrix(1 0 0 1 412.3439 12)" class="st6 st7 st8">2005</text>
										<text transform="matrix(1 0 0 1 458.5764 12)" class="st6 st7 st8">2010</text>
										<text transform="matrix(1 0 0 1 504.8088 12)" class="st6 st7 st8">2015</text>
									</g>
									<g id="x-base-lines-svg_grid-x-svg_datawrapper-R1tBb-1io9s9d-svg">
									</g>
									<g id="y-tick-labels-svg_grid-y-svg_number-axis-svg_datawrapper-R1tBb-yhj5g2-svg" transform="translate(-5, 0)">
										<text transform="matrix(1 0 0 1 -5.7383 289)" class="st6 st7 st8">0</text>
										<text transform="matrix(1 0 0 1 -28.3086 245.0524)" class="st6 st7 st8">2,000</text>
										<text transform="matrix(1 0 0 1 -28.3086 201.1049)" class="st6 st7 st8">4,000</text>
										<text transform="matrix(1 0 0 1 -28.3086 157.1573)" class="st6 st7 st8">6,000</text>
										<text transform="matrix(1 0 0 1 -28.3086 113.2097)" class="st6 st7 st8">8,000</text>
										<text transform="matrix(1 0 0 1 -35.0469 69.2621)" class="st6 st7 st8">10,000</text>
										<text transform="matrix(1 0 0 1 -35.0469 25.3146)" class="st6 st7 st8">12,000</text>
									</g>
									<g id="y-base-lines-svg_grid-y-svg_datawrapper-R1tBb-1io9s9d-svg">
										<line class="st9" x1="555.7" y1="285" x2="0" y2="285"/>
									</g>
									<g>
										<g>
											<defs>
												<polygon id="SVGID_00000130623320166552855150000010787375098850748317_" points="9.7,283.7 102.2,283.3 194.7,280.4 
													287.2,260.4 379.7,241.3 426,230.8 472.2,226.8 518.4,203.5 536.9,199.1 546.1,199.1 546.1,-0.2 536.9,3.5 518.4,22.4 
													472.2,84.8 426,111.4 379.7,142.6 287.2,196.7 194.7,237.1 102.2,249.2 9.7,254.9 9.7,283.7 												"/>
											</defs>
											<clipPath id="SVGID_00000015337670421280749880000002345353848836996030_">
												<use xlink:href="#SVGID_00000130623320166552855150000010787375098850748317_"  style="overflow:visible;"/>
											</clipPath>
											<g style="clip-path:url(#SVGID_00000015337670421280749880000002345353848836996030_);">
												
													<image style="overflow:visible;enable-background:new    ;" width="1200" height="900" xlink:href="34E75FEE8CFFD56C.jpg"  transform="matrix(0.4673 0 0 0.4673 -5.2193 -36.7029)">
												</image>
											</g>
										</g>
									</g>
								</g>
							</g>
						</g>
					</g>
					<text transform="matrix(1 0 0 1 131.9747 279.0915)" class="st6 st11 st12">Recycled</text>
					<text transform="matrix(1 0 0 1 232.2658 179.3684)" class="st6 st11 st12">Combustion with </text>
					<text transform="matrix(1 0 0 1 232.2658 194.3684)" class="st6 st11 st12">Energy Recovery</text>
					<text transform="matrix(1 0 0 1 425.0928 68.3851)" class="st6 st11 st12">Landfilled</text>
					<g>
						<g>
							<defs>
								<rect id="SVGID_00000065071185568912281170000008955450740099509691_" y="70" width="600" height="332"/>
							</defs>
							<clipPath id="SVGID_00000048481831877257254620000004061824991590390415_">
								<use xlink:href="#SVGID_00000065071185568912281170000008955450740099509691_"  style="overflow:visible;"/>
							</clipPath>
							
								<g id="tooltip-layer-svg" transform="translate(0.00000, 35.00000)" style="clip-path:url(#SVGID_00000048481831877257254620000004061824991590390415_);">
								<g id="group-svg_00000125578753680937417000000001694137744541830320_" transform="translate(42.3125, 27)">
								</g>
							</g>
						</g>
					</g>
					<g>
						<g>
							<g>
								<g>
									<g>
										<path class="st14" d="M473.3,175.2h-0.2C473.1,175.3,473.2,175.3,473.3,175.2z"/>
										<path class="st14" d="M473.4,175.7C473.4,175.7,473.5,175.7,473.4,175.7C473.5,175.7,473.5,175.7,473.4,175.7z"/>
										<path class="st14" d="M453.6,101.5c0-0.1,0-0.2-0.1-0.3C453.5,101.4,453.6,101.4,453.6,101.5z"/>
										<path class="st14" d="M459,118.5h-0.1H459z"/>
										<path class="st14" d="M471,174.8C471.1,174.8,471.1,174.8,471,174.8C471.2,174.8,471.1,174.7,471,174.8z"/>
										<path class="st14" d="M455.5,97.8l-0.1-0.1C455.4,97.7,455.5,97.7,455.5,97.8z"/>
										<path class="st14" d="M467.1,168.2C467,168.1,467,168.1,467.1,168.2C467,168.1,467,168.2,467.1,168.2z"/>
										<path class="st14" d="M449.1,120.2c0,0.1,0.1,0.1,0.1,0.1C449.2,120.2,449.2,120.2,449.1,120.2z"/>
										<path class="st14" d="M450.4,120.4c-0.3-0.8-0.8,0.1-1.1-0.1c0.1,0.2,0,0.7,0.3,0.5c-0.8,0.3,0.3,1.3-0.4,1.7
											c0.1,0,0.4-0.2,0.5,0.1c0,0.5-0.3,0.4-0.5,0.6c0.2,0.2,0.3,0.9,0.2,0.8c0.2,0.3,0.8-0.3,1.1,0.2c0.5,0.3,0,0.7,0.2,1.1
											c-0.4,0.4-0.2-0.4-0.4-0.6l0.2,1.2c-0.3,0.3-0.5-0.2-0.4-0.5c-0.4,0.5-0.1,1.1,0.3,1.2c-0.1,0.3,0,0.5-0.2,0.7
											c-0.2-0.3-1-0.3-1.1-0.8c0.1-0.7,0.6,0.3,0.7-0.3l-0.5-0.1c0.3-0.2-0.1-0.5-0.1-0.8c0.1-0.2,0.2,0,0.2,0.2
											c0-0.5,0.3-0.9-0.2-1.3c-0.5,0.7,0,1.7-0.5,2l0.6,1.4c0.2,0,0.6-0.4,0.9-0.1c-0.5,0.1-0.8,0.5-0.9,1.1
											c0.6-0.2,0.5,0.9,1,0.6c-0.3-0.3,0.2-0.4,0.3-0.4c0,0.5,0.5,0.1,0.6,0.4c-0.1,0.9-0.4,0-0.6,0.9c-0.3-0.2-0.9-0.7-1.1-1.2
											c-0.3,0,0,0.5-0.3,0.7c0.3-0.3,0.6,0.2,0.7,0c0.2,0.7,0.8,1.6,1,2.5c-0.9-0.1-0.7-1.5-1.7-1.2c0.1,0.4,0.6,0.4,0.5,0.8
											c-0.5,0.3-0.1,1,0,1.6l0.3-0.3c0.2,0.2,0,0.6,0,0.9l-0.1-0.1l0.2,0.3c0,0,0,0.1-0.1,0.1c0.3,0.3,0.1,1,0.2,1.6
											c0.4,0,0-0.5,0-0.8c0.1-0.1,0.2-0.6,0.5-0.3c0,0.7,0.6,1.1,0.6,1.9l0.1-0.2c0.3,0.2,0.2,0.6,0.2,0.9
											c-0.3,0.7-0.6-0.5-0.8,0c-0.4-0.2,0-0.7-0.5-0.8l-0.6,0.4c0.4,0.3-0.1,0.8,0,1l0.2-0.3c0.5,0,0.1,0.3,0.1,0.4l0.7-0.2
											c0.1-0.4-0.5-0.6-0.1-0.9c0.3,0.7,0.8,0.5,0.8,1.3c-0.3,0.1-0.1-0.2-0.3-0.2c-0.2,0.3,0.4,0.5,0.2,1
											c-0.2-0.2-0.5-0.6-0.8-0.3l0.5,0.2c-0.1,0.2-0.3,0.1-0.3,0.2c-0.1,0.3,0.5-0.1,0.4,0.4c-0.1,0.1-0.2,0.2-0.3,0.2
											c0,0.5,0.2,0.2,0.5,0.7c-0.1-0.4,0.7-0.5,0.8-0.1c0,0.7,0.5,1.1-0.1,1.6l0.4,0.3c-0.5-0.1-0.1,0.4-0.2,0.6
											c-0.5,0.1-0.1-1-0.9-0.9c0,0.4-0.3,0.3-0.6,0.2c0.1,0.5,0.6,0.1,1,0.3c-0.2,0,0,0.8-0.5,0.6c0,0.4,0.6,0.4,0.5,0.7
											c-0.2,0-0.5,0-0.7,0c0.2,0,0,0.4,0,0.5c0.1-0.1,0.5,0.1,0.3-0.2c0.4,0,0.1,0.8,0.4,0.7c-0.5,0.1,0,0.8-0.1,1.1
											c1.1-0.2-0.5-0.6,0.4-0.9c0.4,0.4,0.3,1.6,0.9,2.3c-0.1,0.7-0.4,0.1-0.8,0.3c-0.3-0.6,0-0.8-0.3-1.3
											c-0.1,0.6,0.2,1.6,0.6,1.9c0.2,0.6-1,0.9-0.6,1.6c0.3-0.2,0.4-0.2,0.5-0.4c0.2,0.2,0.1,0.4,0.1,0.7
											c0.2,0.1,0.2-0.4,0.5-0.1c0,0.1,0,0.4-0.3,0.4l0,0c0.5,0.7-0.7,0.7,0.1,1.2c0.2-0.1-0.1-0.2,0-0.4
											c0.2-0.2,0.7,0.1,0.9,0.4c-0.3,0,0,0.3,0,0.5c-0.4,0.2-0.2-0.5-0.5-0.5l0.1,0.6V152l0.5,0.5c-0.2-0.4,0.4-0.3,0.5-0.1
											c0,0.4,0,0.9-0.4,0.9c0.5-0.1,0.6,0.5,0.7,0.8c0.1-0.4,0.4-0.1,0.5-0.1l-0.3,0.7c-0.3-0.6-0.4,0.2-0.7,0.2
											c-0.5-0.1-0.4-0.5-0.4-0.9c-0.7,0.9,0.7,0.8,0.4,1.5c-0.2,0.1-0.5,0.1-0.5-0.2c-0.1,0.1,0.5,0.4,0.4,0.9
											c0.1-0.1,0.5-0.5,0.7-0.1l-0.4,0.6c0.1,0.6,0.6,0,1,0.5l0.3-0.4c0.5-0.1,0.2,0.6,0.7,0.5c-0.1-0.3-0.5-0.4-0.4-0.7
											c0.4-0.2,0.4,0.3,0.7,0.4c0,0.7-0.1,0.6-0.3,1.2c-0.7,0.2-1.1-0.5-2.1-0.1c0.3,0.6,0.8,1.4,0.7,2c0.4,0.5,0.9,0.3,1.3,0
											c0.1,0.2,0.1,0.3,0.1,0.5l-0.3-0.2c0.5,0.6,0.9,0.9,1.1,1.6c0.3,0.4,0.6,0,0.9-0.2l0.2,0.4l0.1-0.1
											c0.5-0.1,0.5,0.4,0.6,0.7c-0.2,0.1-0.3-0.1-0.4,0c-0.1,0.3,0.1,0.7,0.4,0.8c-0.2,0.1-0.7,0.1-0.7-0.3c0,0,0.1-0.1,0.2-0.1
											l-0.4-0.4c0.5,0.5,0.1,1-0.4,1.2c0.5,0.5,0.3-0.7,0.8,0c-0.6,1.3,0.9,1.7-0.1,2.7c0.5,0.3,1.1,0.6,1.5,1.3
											c0.4-0.2,0.4,0.4,0.8,0.1c0.2-0.9-1.3-0.8-0.8-1.7c-0.3-0.2-0.6,0-0.9,0c-0.1-0.2-0.2-0.5,0-0.6c0.5,0.5,1-0.2,1.3,0.5
											c0.3-0.2-0.1-0.8-0.1-1.1c0.2,0,0.4-0.2,0.5-0.4c0.4,0.1,0.8,0.4,1.2,0.4c-0.2,0-0.3,0.2-0.4,0.2l0.9,0.5
											c-0.1,0.3-0.4,0.5-0.6,0.5c0.1,0.5,0.9,0.9,0.4,1.2c0.3,0.5,0.3-0.3,0.4-0.5h0.1l-0.3-0.5c0.6-0.4,0.1,0.7,0.8,0.5
											c1.2-0.5,0,0.9,0.4,1.2h-1.1l0.4,0.3c-0.4,0-1,0.3-1.5,0.1c0.3,0.6,0.4,1.5,0.8,1.7c-0.2,0.3-0.4,0.5-0.7,0.6
											c0.8,0.2,0.3,1,0.6,1.5c0.6,0.3,0.1-0.8,0.7-0.7c-0.1,0.3,0.2,0.4,0.4,0.5c-0.2,0-0.3-0.8-0.4-1.2c0.2,0.3,0.5,0,0.7-0.1
											l-0.2-0.5c0.5-0.3,0.4,0.5,0.8,0.5c-0.5,0.2-0.5,0.2-1,0.4c0.4,0.3,0.8,0.8,0.8,1.3c0,0.3-0.3,0-0.5,0
											c-0.2,0.3,0.5,0.2,0.2,0.6c-0.3,0.1-0.2-0.2-0.4-0.3c0.2,0.4,0.5,0.8,0.7,1.2c-0.2,0.1-0.4-0.1-0.5-0.3
											c0.1,0.5,0.4,0.7,1.3,0.6c0.2,0.5,0.3,1.1,0,1.2c0.3,0.1,0.3-0.2,0.4-0.3c0.4,0.6,1,0.1,1.3,0.3l0.1-0.5
											c0.2,0.7,0.5-0.4,0.7,0.2c-0.3,0.2-0.6,0.6-0.8,1c0.3-0.2,0.4,0.3,0.6,0.4c0.1-0.4,0.7,0,0.6-0.5c0.6,0.1,0.5,0.7,1.1,0.5
											c-0.1-0.2,0.6-0.1,0.6-0.5c0.4,0.2,0.5,0.8,0.2,1.2c-0.1-0.1-0.3-0.4-0.5-0.1c0.3,0.1,0.6,0.3,0.9,0.4
											c0.1,0.3,0.4,0.5,0.2,1c0.5-0.3,0.8,0.7,1.2,0.2c-0.5,0.3-0.5-0.4-0.6-0.5h0.2c0,0,0,0-0.1-0.1c0.2-0.2,0.5-0.4,0.7-0.6
											c-0.2-0.4-0.3,0.5-0.8,0.3c-0.1-0.5,0.3-0.6,0.6-0.7c0.3-0.1,0.6-0.3,0.5-0.6c-0.3-0.4-0.5,0.4-0.9,0.5l0.1,0.1H470
											c0.1-0.2,0.4-0.3,0.4-0.3c-0.8-0.4-0.7-0.9-1.4-1.4c0,0.1-0.3,0.9-0.7,0.7c-0.4,0-0.1-0.4-0.3-0.6c0.2,0,0.6-0.3,0.5,0.1
											l0.3-0.5c0.9-0.1,1-0.8,1.8-0.5c0.2-0.3,0.8-0.2,1.2,0v-0.4c0.7-0.5-0.2,0.6,0.6,0.2c-0.1,0.7,0.1,1.7-0.4,2.2
											c0.4,0.3,0.7,0,1,0.1c0.1,0.6-0.3,0.6-0.4,1.2c0.4,0,0.8-0.1,0.6-0.5c0.2,0.1,0.4,0.3,0.6,0.3c0,0.1-0.2,0.1-0.3,0.1
											c0.2,0.2,0.7-0.1,0.9-0.3c-0.1,0-0.2,0.1-0.3,0c0.3-0.1,0.7-0.4,0.8-0.5c-0.4,0.3-0.3-0.4-0.7-0.1
											c0.1-0.2,0.2-0.5,0.3-0.4c-0.2-0.4-0.5-0.4-0.6-0.8c0.2,0.3,0.4-0.1,0.4-0.2c-0.2-0.1-0.6-0.1-0.7,0
											c0.1-0.7-0.8-0.1-0.3-0.7c-0.1,0.2-0.4,0.2-0.5,0c0.1-0.3,0.5-0.3,0.7-0.6c0.7-0.2-0.1,0.5,0,0.7l0.5,0.1
											c0-0.1,0.3-0.4-0.1-0.5c0.2-0.4,0.6-0.7,0.8-0.3c0.1-0.2-0.1-0.2-0.2-0.2c0.1-0.2,0.4-0.9,0.1-1c0.1,0-0.2,0.3-0.1,0.6
											c-0.2,0.1-0.5-0.3-0.3-0.6c-0.2,0.1-0.5,0.3-0.7,0.3c0-0.3,0.2-0.1,0.3-0.2c-0.2,0-0.4,0.1-0.5,0v0.4
											c-0.3-0.4-0.8,0.4-1.2,0.4c0.3-0.5,0.5-0.4,0.8-0.6c0.1-0.7-0.3,0.3-0.5,0c0-0.1,0-0.2,0.1-0.4l-0.4,0.3
											c0-0.1,0.1-0.2,0.1-0.2c-0.7,0.3-0.3,0.7-1.1,0.6c0.2,0.5,0.5-0.1,0.8,0.1c0,0.4-0.7,0.5-0.9,0.6c-0.3-0.3,0.2-1-0.5-0.9
											c0.4-0.1,0.3-0.4,0.7-0.2c0.3-0.1,0-0.3,0.2-0.6c-0.1,0-0.2,0.5-0.5,0.3l0.1-0.1c-0.3,0.1-0.5,0.1-0.8,0.1
											c-0.2-0.5-1.3-0.3-1.2-1l-0.3,0.5c-0.3-0.2-0.6-0.6-0.9-0.7c0.3-0.2,0.5,0,0.7,0.1c-0.4-0.5-1-0.7-1.6-0.8
											c-0.1,0.5,0,0.5-0.1,0.9c-0.9,0.2,0-0.7-0.6-0.9c0.4-0.4,0.5-0.2,0.8-0.6c-0.4,0-0.6-0.3-1-0.3c0.4-0.4,0.9-0.5,1.2-0.1
											c-0.1,0.6,0.8,0.4,0.7,1l0.1-0.4c0.4,0.2,0.5,0.5,0.9,0.5h-0.1l0.5-0.3l-0.1-0.1c0.3-0.1,0.9-0.2,1-0.2
											c-0.4-0.3-1.1,0.3-1.6,0.4c-0.3-0.4,0.3-1.2-0.3-1.1c0.2-0.2,0.2-0.6,0.6-0.6c0.3,0.1,0.1,0.5,0.4,0.2
											c-0.2-0.2,0.1-0.3-0.3-0.5c-0.4,0.2-1,0.3-1.5,0.2c-0.4-0.1-0.7-0.5-0.7-0.8c0.2,0.3,0.8,0.3,1.1,0
											c-0.5,0.1,0-0.8-0.6-0.3c-0.2-0.4-0.6-0.9-0.1-1.3c0.4,0.2,0.3,0.7,0.6,0.9c0-0.1,0-0.2,0.2-0.3l0.2,0.4
											c0.1-0.5,0.3-0.5,0-0.8l-0.1,0.1c-0.1-0.1-0.1-0.2-0.2-0.3l0.5-0.3c-0.4-0.2-0.1-1-0.8-1.4h0.1c-0.1-0.5-1.1,0-1.5-0.5
											c0.3,0,0.5-0.1,0.7-0.3c-0.4-0.1,0-0.5,0-0.8c-0.2,0.4-0.6,0.1-0.7,0.3c-0.5,0.3-0.7-0.3-0.8-0.6c0.6-0.4,0.7,0.7,1.2,0
											c-0.1-0.3-0.5-0.2-0.5,0.1c-0.1-0.4-0.2-0.9,0.1-1.3c-0.7-0.2-0.5-0.5-1.2-0.5c0.1,0.2,0.6,0.1,0.4,0.4
											c-0.2,0-0.4-0.1-0.6-0.1c-0.2-0.4,0.1-0.9,0.1-1.2l0.3,0.2h-0.1c0.3,0,0.3,0.5,0.6,0.3c-0.6-0.1-0.2-0.5-0.7-0.7h0.1
											c-0.6-0.5,0.3-1.4-0.8-1.5c0.1,0.1-0.2,0.5-0.4,0.5c0.2-0.2,0-0.6,0.2-0.7l0.1,0.1c-0.1-0.4-0.1-0.6-0.2-0.7
											c-0.4,0-0.6,0.2-0.9,0c0-0.7,0.9,0,1-0.5c-0.2-0.2-0.4-0.3-0.6-0.5l0.3-0.2c0-1-1.2-1.4-1.5-2.4c0.5-0.2,1,0.5,1.1,0.7
											c0.4-0.4-0.4-0.7-0.2-1.2c0-0.4-0.6-0.6-0.9-0.4c-0.3-0.4,0.2-0.4,0.3-0.5c-0.6,0-0.6-0.6-0.8-1l0.3-0.1l-0.5-0.5
											c0,0.2-0.3,0.1-0.5,0.1v-0.2c-0.8,0.8,0.9,1.2,0.1,2c-0.2-0.2-0.3,0.1-0.5,0c0-0.2,0-0.2,0.1-0.3c-0.3,0-0.6-0.2-0.5,0.1
											c-0.7,0.2-0.7-0.5-1-0.9c0.4-0.5,0.8,0.2,1.1,0.3c-0.1-0.2-0.4-0.2-0.3-0.5l0.5-0.1c-0.4-0.6-0.5-0.1-1-0.1
											c-0.7,0-0.1-0.6-0.2-0.7l0.2,0.2c0.1-0.5-0.5-0.5-0.5-1l0.4-0.3c-0.4,0.7,0.9,0.5,0.7,0.9c0.3-0.9,1.1-0.1,1.6,0.1
											c-0.2-0.3-0.2-0.6,0.1-0.9c-0.8-0.3,0-1.1-0.9-1.4c0-0.3,0.4,0.2,0.4-0.1c-0.1-0.5-0.3-1-0.6-1.5c0-0.3,0.2-0.3,0.4-0.4
											c0.1-1.4-1.3-1.7-1.2-3.3l0.3,0.2c0-0.3,0.1-0.6-0.3-0.7c0.9-0.5-0.7-1.3,0.2-1.9c0.1-0.7-0.7-0.6-0.9-1.1
											c0.2,0,0.6,0.1,0.7-0.2c-0.3-0.8-0.4-1.6-0.5-2.5c-0.1-0.8-0.2-1.7-0.4-2.6c0.1,0,0.2,0.1,0.2,0.2c0-1.2-0.8-2.4-0.6-3.5
											c-0.1-0.2-0.3-0.8-0.7-0.6c-0.1,0.2-0.5,0.3-0.8,0.3c-0.4-0.9,0.7-0.4,0.6-1.1c0.7-0.2,0.5,0.4,1.1,0.4l-0.5-0.9
											c0.2-0.5-0.1-1,0.2-1.4c-0.1,0.2,0.5,0.1,0.2,0.4c0,0-0.1,0-0.1-0.1c-0.1,0.7,0.3,0.4,0.5,1.1c-0.2-0.6-0.3-1.4-0.1-1.9
											c-0.5,0.1-0.2-0.4-0.5-0.6h0.1c-0.2,0-0.3-0.3-0.4-0.4l0.6-0.1c-0.1-0.2-0.3,0-0.4-0.2c-0.1-0.3-0.1-1.5,0.5-1.5
											c0-0.4-0.4-0.5-0.3-0.9c0.2,0,0.2,0.1,0.3,0.2c0.2-0.8,0.1-1.9,0.6-2.6c-0.1-0.7-0.1-1.2-0.5-1.7c0,0.2-0.2,0.7-0.5,0.3
											c-0.2-0.2-0.1-0.5-0.2-0.8c0.3,0.1,0.4-0.6,0.6-0.1c0.7,0,0.1-1.2,0.8-1.1c-0.2-0.2,0.1-0.9-0.3-1.3
											c0.3,0,0.1,0.4,0.3,0.5v-0.4h0.2c0.3-0.6-0.5-0.9-0.6-1.3h0.1l-0.1-0.3l0.5,0.4c0-0.4-0.5-0.8-0.5-1.3h0.2
											c0-0.1-0.1-0.2-0.1-0.3c0,0.1,0.1,0.1,0.2,0.1c-0.5-0.4-0.1-1-0.5-1.3c0.1-0.2,0.8-0.2,0.4-0.5l0.6,0.2
											c-0.1,0.6-0.5,0.1-0.4,0.8c1-0.3,1.2-1.7,1.3-2.6c-0.3-0.9,0.7-1.9-0.1-2.4l0.4,0.2l0.7-1.1c0.2-1.1,0.7-2.1,0.5-3
											l0.4-0.1c-0.8-1.2,0.5-2.9-0.6-3.9c0.5-0.4,0.4,0.3,0.7,0.5c0.2-0.3-0.4-1.2,0.3-1.3c0.2,0.1,0,0.5,0.2,0.4
											c0.5-0.1-0.2-0.5,0.3-0.6c-0.4,0-0.6-0.8-0.5-1.2c0,0.1,0,0.1-0.1,0.1c-0.3-0.1-0.1-0.3-0.1-0.5c0,0,0.1,0,0.1,0.1
											c0.2-1.1,0.5-2.4,0.9-3.5c0.5-1.2,1.1-2.3,1.8-3.3l-1,0.6c0-0.4,0.4-0.9,0.5-1v0.1c0.9-0.3-0.2-0.9,0.7-1v0.1
											c0.4-0.7,1.2-0.7,1.2-1.6c0.5-0.4,0.8-0.2,1.2-0.4c0.2-0.3-0.1-0.6-0.2-0.7l-0.1,0.1c-0.4,0-0.1-0.5-0.1-0.8
											c-0.6-0.1-1.3-0.7-2.2-0.4c-0.1,0.6-1.1,0-1.3,0.5c0.5,0.7-0.9,0.4-0.6,1.3c-0.3-0.5-0.6,0.4-0.9-0.3
											c-0.5,0-0.2,1.2-0.8,1.4c-0.1-0.1-0.2-0.2-0.2-0.3c0,0.7-0.5,0.2-0.7,0.6l0.5,0.2c0.1,0.2-0.3,0.1-0.3,0.3
											c0.1-0.1,0.5-0.2,0.6,0c0,0.2,0.1,0.5,0,0.7c-0.2-0.1-0.2-0.3-0.2-0.4c0,0-0.3,0.4-0.5,0.3c-0.1-0.2,0-0.4-0.2-0.7
											c-0.4,0.5-0.2,0-0.7,0c0.6,0.2,0,0.6,0,1c-0.2-0.1,0-0.3-0.1-0.4c-1.3,0.1-0.3,1-0.9,1.6c-0.1-0.1-0.1-0.2-0.1-0.2
											c0,0.4-0.7,0.4-0.5,0.8c-0.3,0.3-0.7-0.2-0.9,0.3c0.7,0.1-0.4,0.6,0.3,0.9l-0.6,0.2c0.2,0.5,1.1,0.4,0.9,1.1
											c-0.5,0.5-1.1-0.5-1.6-0.3l0.3,0.3l-0.4,0.2v-0.1c0,0.2-0.2,0.6-0.4,0.5c-0.1-0.1,0-0.3-0.2-0.4c0.2,0.5-1.4,0.9-0.6,1.7
											c-0.3,0.1-0.4,0.5-0.7,0.3c0.4,0.3-0.5,0.8-0.3,1.2c-0.1-0.1-0.5,0.1-0.4,0.3c0.3-0.2,0.4,0,0.6,0.3
											c-0.4,0.1-0.4,0.9-0.9,0.8c0.2,0.5,0.6,0.5,1,0.7c-0.4,0.1-0.6,0.9-1.2,0.5c0.1-0.2,0.4-0.6,0-0.6
											c-0.4,0.3,0.1,0.2,0.1,0.6c-0.1-0.1-0.5,0.1-0.6,0c0,0.2-0.1,0.5-0.3,0.7c0.4-0.3,0.3,0.4,0.7,0.2l-0.3-0.5
											c0.1-0.5,0.4,0,0.6-0.1c-0.2,0.9,0.5,0.9,0.6,1.8c-0.2,0.1-0.4,0.3-0.4,0.4c0-0.3-0.5-0.4-0.7-0.3
											c0.4,0.6-0.5,0.7-0.8,1.1c0.2-0.3,0.6,0,0.7,0.2c0.1,0.9-0.3,0.2-0.7,0.5c-0.3,1.2-1.3,1.8-1.1,2.9l0.6-0.3l-0.5-0.3
											c0.5-0.3,1.1,0.4,1.4,0.7c-0.2,0-0.2,0.6-0.5,0.3l0.1,0.6c0.2,0,0.2-0.4,0.4-0.1c-0.2,0.1-0.4,0.7-0.7,0.3
											c-0.1,0.3,0,0.7,0.3,0.7c-0.1,0.5-0.6-0.2-0.8-0.5c-0.1,0.4-0.6,0.2-0.7,0.1l-0.1,0.6c-0.1-0.2-0.3-0.2-0.4-0.4
											c-0.3,0.3,0.2,0.7-0.3,0.9l0.4,0.2c-0.6,0.9-0.6,0.8-0.9,1.7l0.4-0.1c0.4,0.8-0.6,0.4-0.5,1.4c0.1,0.6,0.2,1,0.7,1
											c0.1,0.3-0.2,0.4-0.4,0.5c0.2,0.3,0.7,0.9,0.3,1.2c-0.1-0.3-0.2-0.5-0.3-0.8c-0.5,0-0.3,0.8-0.6,1.2
											c0.2,0.3,0.7,1.3,1.1,1.9c0.4-0.2,1,0,1.4,0.5c-0.3-0.1-0.4,0.6-0.7,0.8c-0.3-0.2-0.8,0.6-0.9-0.1
											c0.2-0.2,0.6-0.2,0.5-0.5c-0.3,0.1-0.8,0.5-1.1,0.9c-0.2-0.1-0.3-0.3-0.3-0.5C450.1,120.5,450.2,120.4,450.4,120.4z"/>
										<path class="st14" d="M471,174.8L471,174.8L471,174.8L471,174.8z"/>
										<path class="st14" d="M449.5,134.1c0,0,0.1,0.1,0.2,0.1C449.6,134.1,449.6,134.1,449.5,134.1z"/>
										<path class="st14" d="M450.6,143.6h0.1C450.7,143.5,450.6,143.5,450.6,143.6z"/>
										<path class="st14" d="M470.1,178.4h-0.2C470,178.5,470,178.4,470.1,178.4z"/>
									</g>
								</g>
							</g>
						</g>
					</g>
					<g>
						<g>
							<g>
								<g>
									<g>
										<path class="st15" d="M477.2,298.4c0,0.1,0.2,0.3,0.2,0.4C477.1,298.5,476.9,298.3,477.2,298.4z"/>
										<path class="st15" d="M480.8,303.3c-1-1.2-2.7-3.1-3.4-4.5C478.4,299.8,481.3,302.3,480.8,303.3z"/>
										<path class="st15" d="M478.3,297l1.1,1.7C478.4,298,478.9,297.9,478.3,297z"/>
										<polygon class="st15" points="478,298.2 477.6,298.4 477.2,297.4 										"/>
										<path class="st15" d="M386.8,277.6c0.2,0.2,0.4,0.3,0.3,0.6L386.8,277.6z"/>
										<path class="st15" d="M382.1,276c-0.4,0-0.7-0.1-1-0.1C381.4,275.9,381.6,275.9,382.1,276z"/>
										<path class="st15" d="M391,277.1l-0.8,0.1C390.4,277.1,390.7,277.1,391,277.1z"/>
										<path class="st15" d="M440.6,273.3c0.6,0.4,1.2,1,1.6,1.3C440.8,274.4,440.9,273.8,440.6,273.3z"/>
										<path class="st15" d="M361.4,269.7l-0.2,0.3C361,269.8,360.9,269.7,361.4,269.7z"/>
										<path class="st15" d="M380.8,270.7c0,0.2,0,0.3-0.1,0.4c-0.1,0-0.2,0-0.2-0.1L380.8,270.7z"/>
										<path class="st15" d="M394.2,276.1L394.2,276.1l0.7,0.1C394.5,276.3,394.3,276.3,394.2,276.1z"/>
										<path class="st15" d="M355.3,268.6c-0.3-0.2-0.5-0.5-0.7-0.8C355.2,268,355.4,268.4,355.3,268.6z"/>
										<path class="st15" d="M381,275.9L381,275.9h0.1C381.1,275.9,381.1,275.9,381,275.9z"/>
										<path class="st15" d="M387.3,270.8c-0.3,0-0.7-0.1-1-0.1C386.7,270.6,387,270.6,387.3,270.8z"/>
										<path class="st15" d="M440.6,273.3c-0.2-0.1-0.4-0.3-0.5-0.4C440.3,273,440.5,273.1,440.6,273.3z"/>
										<path class="st15" d="M473.1,294.9c-0.4-0.5-0.4-0.7-0.3-1C473,294.3,473.1,294.6,473.1,294.9z"/>
										<path class="st15" d="M292.8,208v-0.3C292.8,207.9,292.8,207.9,292.8,208z"/>
										<path class="st15" d="M291.2,233c-0.1,0.1-0.1,0.3-0.2,0.4C290.9,233.2,291,233,291.2,233z"/>
										<path class="st15" d="M306.8,249.5c-0.6-0.4-1.1-1-1.3-1.6c-0.3-0.7-0.5-1.3-0.8-1.8l-0.1,0.6c-0.2-0.4-0.3-0.8-0.4-1.2
											l-0.5,0.3c-0.9-1.8-2.5-3.7-1.9-4.8l-0.7,0.6c0-0.8-0.1-1.5-0.1-2.2c-0.1,0.5-0.1,0.9-0.1,1.4c-0.3-0.5-0.5-1.2-0.7-1.9
											s-0.3-1.4-0.4-2c-0.2-1.3-0.2-2.4-0.3-2.6l-0.3,0.3c-0.2-0.4-0.1-0.7-0.1-1.1l-0.4,0.4c-0.1-0.9-0.3-1.7-0.4-2.4
											s-0.3-1.3-0.5-1.9c-0.3-1.3-0.5-2.6-0.3-4.8c-0.1-1.2-0.2,0.7-0.4,0.7c-0.4-0.7,0-2.2,0.2-2.5c-0.8,0.3-0.6,2.2-1.2,0.8
											c0.4-1-0.7,0.7-0.6-1.1l1-0.7c-0.1-1-0.8-0.2-0.6-1.8c0.5-1.8,1,2.3,1.3-0.6c0-1.4-2.1-3.3-1.3-6.1
											c-0.3-2.5-1.7,1.1-1.1-2.3l-0.9,2.1c-0.2-0.6-0.8-0.3-0.4-1.8c0.4-0.4,1.1-1.3,1.2-2.1c-1.1,3.1-0.8-3-2.2-0.1l0.2-1.1
											c-0.1,0.1-0.2,0.2-0.2,0.1l0.1-1.5c-0.3,0.9-0.7,3.1-1.3,2l0.1-2.2c-0.6,0.5-0.8-0.3-1.2-0.2c-0.6,2.1-1.3,4.2-1.8,6.3
											c0.4-0.2,0.7-1.1,1-0.8c0.1,1.8-0.8,1.4-0.5,3.1l0.5-0.7c-0.2,0.1-0.3,0.3-0.3,0c-0.2-0.6,0.1-0.8,0.4-0.8
											c0.5,0.6,0,2.3-0.5,2.7c-0.1,2.2,1,0.5,1.1,1c-1,1-0.2,3.6-0.7,4.9l0.7-0.8c0.7,1.7,0.1,3.1-0.2,4.1l0.5-0.4
											c-0.1,2.3,1.7,3.3,0,5.2l0.3-0.3c0.3,0.9,0.7,2.3,0.4,3.3c0.2,0,0.5,0.1,0.6,0.5c-0.6,0.6,0,1.5,0.5,2.9
											c0-1,0.9-0.8,1-1.8c0.6,0.9,0.5,1.5,0.2,2s-0.7,1-0.4,1.9c0.7,0.9,0.2-1.1,0.5-1.4c0.1,1.4,1,2.6,1.7,3.7
											c0.7,1.1,1.4,2,0.9,3.2l-1-0.9c0.1,1.2,0.3,1.7,0.4,1.5c-0.2-0.3-0.1-0.5,0-0.7c0.5,0.7,0.9,1.3,1.2,2
											c0.2,0.7,0.4,1.3,0.6,2s0.3,1.3,0.6,2c0.3,0.7,0.7,1.3,1.3,2c0.1-0.4-0.1-0.9,0.1-1c1.2,1-0.5,2.4,1.8,3.8v-0.6
											c0.7,0.5,0.7,1.3,0.6,1.3c0.6-0.5,1.5,0.5,2.6,1.5s2.6,2,3.9,1.8c0.2,0.7,1,1.7,1.8,2.5s1.8,1.5,2.4,1.5
											c1.8,0-0.6-1.6,0.3-2c1,0.6,1.1,1.7,2.7,2.2c-0.4,0.8-3.9-0.2-1.2,1.9l0.6-0.2c-0.3-0.1-0.8-0.2-1.2-0.5
											c-0.6-0.9,0.8-0.2,1.1-0.3c1,0.7,2,1.3,3.1,1.9c-0.2,0.9-2-0.2-2.3-0.1c2.7,1.2,6.3,1.4,8.5,2.8l-0.1-0.4
											c2.9,1.9,2.4-0.9,4.4,1.4c1.4,0.2-0.2-1.1,1.8-0.5c0.6,0.2,0.1,0.4,0,0.5c2.4,1.1,1.3-0.5,3.4,1l-0.2-1.1
											c2.5,1.4,5,3.7,7.5,3.8c0-0.8-1.5-1-1.9-1.7c2.9,2,7.7,1.7,10.6,2.9c-1,0.5,1.2,1.7-0.8,1.9c-0.4-1-1.4-0.6-2.4-0.8
											c1.4,2.4,7.2,0.1,7.5,1.9l0.5-0.7c0.5,0.2,1.6,0.9,0.7,1l3.4-0.1c-1.1-0.7-3.5-2.2-4.4-1.5c-0.9-0.9,1.4-0.3,0.7-1.3
											c2.1,1.5,1.4-0.4,3.7,0.2c-1.2,1,2.2,1.7,2,2.2c0.8-0.1,2.4,0.5,3.1,0.9c1.4,0.2,4.5-0.5,6.7-0.1c-0.8-0.3-2.1-0.9-2-1.5
											c1,0.4,2.2,0.5,2.4-0.3c-3.7-1.6-1.3,1.8-4.7,0.7c-0.8-1-1.7-1.2-3.4-1.6c0.8-0.5,0.5-0.7,0.9-1.3c2,2.1,5.5,0.5,8.3,1.5
											c1.2,0.6,0.3,1.8,3,2c-0.8,0.2-1.6,0.4-2.3,0.6c2.6-0.5,0.6,0.6,2.7,0.8l-0.8-0.6c1.3-0.1,1.8,0,2.5,0.4l-1.1-1
											c0.7-0.1,2-0.2,2,0.3c0.2-0.2,0.2-0.4,0.2-0.6c0.1,0.2,0.5,0.3,1.3,0.2c-0.5-0.1-0.8,0-0.8-0.3c3.1,0.2,0.7-1,2.6-1
											c-0.3-0.2,0.2-0.5,0.9-0.6c0,0.8,1,1.1,2,1.4c1.1,0.3,2.3,0.5,2.8,0.9l0,0c0.9,0.2,1.8,0.3,2.6,0.4
											c-0.5-0.1,0-0.5,0.7-0.7h-0.1c0.8-0.3-1.1-1.5,1.4-1.3l1.3,0.3c-0.2,0,0-0.3,0.1-0.4l1.4,0.3c1.9-1.6,3.9,0.4,6.2-0.7
											c-0.7,0.2-1.7,0.2-1.3-0.3c0.4-0.2,1.2-0.2,1.5,0l-0.1-0.1l4.6,0.3c-0.4-0.4-3-0.1-1.9-0.8c0.6-0.8,2-0.3,2.8-0.3
											c0,0.4-1.5,1,0.1,1c0.2-0.2,1.5-0.8,0.8-1c1.6,0.2,3.9,0.1,5.3,0.6c0.4-0.2-0.3-0.3-0.5-0.3l-0.1,0.1
											c-0.9-0.1-0.3-1-2-0.3c-0.3-1.3,2.6-0.7,4.1-1.1l-2.6-0.5c2-1.2,4.5-1.5,7.1-1.5c2.5,0,5.1,0.3,7.2,0.3
											c-1.2,0.5-2.3,0.1-2.1,1.1c2.6,0.4,2.3,0.2,4.8,0.4l-0.2-0.1c1.3-0.5,3.1,0.6,4-0.2c-0.5-0.6-1.9,0.4-1.9-0.7
											c1.1,0.1,2.2,0.2,3.2,0.3c-1-0.8-3.2-0.4-4.5-0.5c-0.9,0,1.8,0.2,1.3,0.9c-1.5-0.1-2.4-0.3-3.2-0.6
											c-0.7-0.3-1.3-0.8-2.1-1.3c-1-0.8,1.3-0.9,1.9-0.8c2,1.1,4.8,1.8,7.9,1.7c0.6-0.2,1.2-0.4,1.8-0.6
											c1.4,1.1,0.5,2.4,3.1,2.8l-0.6-0.8c0.6-0.1,1-0.1,1.3,0c-1-0.7-2.1-1.6-3.1-2.2c0.4-0.2,1-0.3,1.5-0.2
											c0.5,0.1,1.1,0.4,1.6,0.7c0.6,0.3,1.1,0.7,1.7,1.1c0.5,0.4,1.1,0.7,1.6,1c-0.1-0.2-0.8-0.5-0.9-0.9
											c0.8,0.2,1.7,0.5,2.4,0.9c0.8,0.4,1.5,0.9,2.2,1.4s1.3,1,1.9,1.5s1.2,0.9,1.7,1.3c0.6,0,0.2-0.3-0.3-0.7
											c-0.5-0.4-1-0.8-0.6-1.1c1.1,0.9,2.8,1.1,2.8,1.9c0-0.6,0.7-0.3,1.2,0s0.7,0.4-0.2-0.7c4.7,2.2,8.5,6.5,11.8,10.4
											c0-0.4,0.2-0.6,0.6-0.6c-1.3-1.2-3-3.1-3.3-4.3c1.3,0.3,1.6,2.4,2,2.3c-0.3-0.6-1.2-1.3-0.8-1.8c1.6,0.5,1.6,1.7,2.3,2.5
											l-0.6-0.2c1.9,2.8,0,2.6,2.7,4.8c1.4,0.4,0.4-0.4,1-1c0.4,0.8,2.9,2,2.8,3.3l-1.5-1.5c0.8,1.2,1.8,2.2,2.3,3.2
											c0.1-0.2,0.1-0.4,0-0.7c0.6,1,1.7,2.1,1.6,2.9l0.9-0.4c-0.8-0.3-2.2-1.7-2.1-2.3c0.7-0.4,1.8,1.5,2.4,2.1
											c-2.5-3.2-1.6-4.2-4.4-6.3l0.2,0.6c-2-1.1-2.8-3.4-4.2-4.7c0.5,0.2,0.8,0.1,0.7-0.2c-3.6-2.3-6.4-5.5-10.7-7.8l-0.8-1.6
											l-0.4,0.5c-2.2-1,0.1-1.1-1.3-1.8c0.5,0.3,0.4,0.3,0.4,0.5c-2.1-2.1-1.7-0.2-2.9-1.2c0.3,1,2.5,1.7,1.4,2.2
											c-1.9-2.1-6.1-3.5-5.8-5.1c-0.6-0.2-1.3-0.4-1.9-0.6c-0.7-0.2-1.3-0.4-2-0.6c-1.3-0.5-2.7-0.9-4.1-1.3
											c-2.7-0.8-5.5-1.5-7.7-1.7c-0.6,0.2,0.4,0.3,0.1,0.5c-0.8-0.6-2.3-0.5-3.6-0.3c-1.2,0.2-2.3,0.4-2.3-0.1
											c-0.8,0.2-1.2,0.9-1.4,1.1c-1.1-0.4-2.4-0.5-3.8-0.5l1,0.2l-0.1,0.1l-1.5-0.2V268c-3.5,0-7.4,0.7-10.5,0.3
											c1.8,0.3-0.3,1.1,0.6,1.3c-1.7-1.1-5.4-0.6-8.3,0c0.1,0.3-0.1,0.5,0.2,0.7l-1.8-0.3l0.3,0.3c-3,0.7-6.5-0.4-8.4,0.4
											c1.3,0,1.3,0.3,1.5,0.8c-2.2,0.2-4.2,0.4-6.8,0.1c0.1,0.1,0.2,0.2,0.2,0.3c-0.7,0.2-1.5-0.1-2.2-0.2l-0.1,0.7
											c-1.3-0.2-3,0.2-4.6-0.3c-0.6,0.8-3.8-0.6-5.6-0.3c-0.7-0.2,1.5,0.8-0.4,0.7c-0.3-1.5-2.5-0.1-2.6-1.7l-1.7,0.5l-0.3-0.8
											c-1.5,1.4-2.1-0.7-4.2-0.4c0.1,0.2,0.3,0.2,0.2,0.4c-0.7-0.2-2.2-0.4-1-0.7c-1.1,0-4.9-0.7-3.3,0.2
											c-0.1-0.5,1.4,0.1,2.1,0.3c-0.1,0.7-1.8,0.3-2.3,1c0-0.1-0.3-0.2-0.4-0.3l-0.3,0.4c-2-0.9-4.2-0.6-5.7-1.8
											c-0.1,0.2-0.5,0.3-1.2,0.2l0.1-0.8c-0.7-0.1-1.5-0.2-2.2-0.3l0.9,1.4c-2.5-0.1-4-1.8-5.9-2.3c-0.8,1.3-3.8-1.2-5.7-0.4
											l1.5,0.7c-3.2-1-3.9-0.2-6.9-1.5c2.7,0.2,2.6,0.5,6.6,0.2c-3.9-0.2-6.3-2.3-9.8-2.5c0.1,0.4,0.9,0.9,0,0.9
											c-0.4-0.9-3.2-1-2.4-1.6c-1.1-0.1-1.5,0.6-2.2,0.5c-1-0.7-2-1.5-3-2.3v0.2c-3.2-0.3-5.7-1.8-7.9-3.6
											c-2.2-1.8-4.1-3.8-6.5-5.4l-0.2,0.4c-0.2-0.5-0.5-0.9-0.6-1.4c0.5,1.1-0.7,0.1-1.1,0.3c-0.3-0.6-0.7-1.1-1-1.6L307,248
											C306.6,248.2,306.1,249,306.8,249.5z M353.9,268.9l1,0.2c0.2,0,0.4,0,0.6,0.1l-0.6-0.1C354.4,269.1,354,269.4,353.9,268.9
											z M445.2,270.3c0.3,0.5-0.7-0.1-1.1-0.2l1.6,0.6C446,270.6,445.4,270.4,445.2,270.3z M353.3,274.3l-0.6,0.5l-0.6-0.5
											H353.3z M339.3,272l1.3,0.6l-0.1,0.1l-1.3-0.6L339.3,272z M325.8,263.2c0.1,0.1,0.1,0.1,0.2,0.2
											C325.9,263.3,325.9,263.3,325.8,263.2c-0.8-0.8-1.6,0-2-1.2C325.1,261.6,325.4,262.6,325.8,263.2z M349,269.1
											c0.4,0.2,0.7,0.3,1,0.3c-0.2-0.4-1-1-0.3-1c0.4,0.5,1.9,0.8,1.9,1.4C350.3,268.9,349.1,270.3,349,269.1z M381.4,271.5
											l-0.3,0.1l1.3,0.4L381.4,271.5z M387.4,271.8c0.8,0.7,2.6,0.4,3.8,0.5c0.3-0.6-1.1-1.3-2.5-1.1
											C386.9,270.8,388.1,272.2,387.4,271.8z M338.4,268.2l0.2,0.6h-0.3c0.4,0.2,0.8,0.4,1.3,0.6c-1.9,0.3-2.9-1.3-3.7-1.7
											C336.6,267.9,338.5,269.6,338.4,268.2z M400,270.9c1.3,0.3,3.7,0.5,3.6,1c-0.1-1-2-1.1-2.5-1
											C400.7,270.9,400.5,270.9,400,270.9z M400.2,272.7c-1.9-0.2-2.1-0.6-3.6-1.3c1.8-0.6,2.4,0.5,2.3,1.1
											c1.3,0.3,1-0.3,1.7-0.5L400.2,272.7z M397.9,270.3l-0.7,0.2c-0.8,0.5-0.9,1.6-2.2,0.7l2.2-0.7
											C397.4,270.4,397.6,270.3,397.9,270.3z M413.5,268.1l-0.8-0.2C413.4,267.8,413.5,267.9,413.5,268.1l0.7,0.2
											C412.5,268.8,413.3,268.4,413.5,268.1z M401.6,270.1l-2.2,0.2C399.6,270.7,401,270.3,401.6,270.1z M413.1,269
											c-0.9,0.2-3.3,0.7-3,0.5C410.2,269,412.5,268.8,413.1,269z M459.8,280.6l-1.1-0.9l1-0.2L459.8,280.6z M445.3,273l0.4-0.2
											l0.7,0.4L445.3,273z M430.6,269.9c0.1-0.1,0.1-0.3-0.1-0.5c-0.2-0.1-0.4-0.2-0.5-0.3c0.2,0,0.4,0.1,0.5,0.3
											c0.6,0.2,1.5,0.2,1.9,0c-0.2-0.4-1.2-0.4-1.5-0.6c0.7-0.3,1.8,0.1,2.7,0.4c0.8,0.3,1.4,0.4,1.1-0.8
											c0.6,0.3,2.5,1.3,1.7,1.6c-0.8-0.2-1.9-0.3-3-0.4C432.3,269.7,431.2,269.8,430.6,269.9c-0.1,0.1-0.2,0.2-0.5,0.2
											C430.2,270.1,430.4,270,430.6,269.9z M410.5,271.8c-0.6,0-0.8,0-0.9-0.1c-0.5-0.1-0.9-0.3-0.8-0.6
											c1.2,0.1,0.5,0.5,0.8,0.6S410.2,271.8,410.5,271.8z M407,272.4l1.9,0.2l-1-0.4l2.9,0.5C409.3,273.4,407.3,273,407,272.4z
											 M406.4,273l-0.5-0.5l0.7,0.5H406.4l0.1,0.1l-3.1,0.1L406.4,273z M374.5,274.5c-1.2,1.9,2.8,1.4,3.4,2.3
											c0.1-0.6,1.3-1.6-1.8-1.6c2.6-0.7,1.7,1.2,3.2-0.4c-1.3,0.1-2.8-0.3-3-0.4c0.5,0,1-0.1,1.5-0.1
											C377,273.1,375.5,274.8,374.5,274.5z M358.4,273.9l-1.9-0.3l1.8,0.4L358.4,273.9z M312.1,260.8c-0.1,0.2-0.7,0.2-1.4-0.1
											c-0.7-0.3-1.3-0.8-1.3-1.3C310.5,260.1,311.6,260.9,312.1,260.8z M297.8,245.7c0.2,0.7,0.5,1.4,0.8,2.1
											c-0.5,0.1-0.8-0.4-1-0.9c-0.2-0.6-0.3-1.3-0.6-1.7C297.2,244.7,297.3,245.6,297.8,245.7z M293.6,232l0.1-0.7l-0.9,0.9
											L293.6,232z M292.4,233.1c-0.5-0.4-0.5,1.2-0.4,1.6L292.4,233.1z M291.1,219.8v0.9l0.9-0.8L291.1,219.8z M292,221.4
											c-0.7,0.2-1.5,0.1-1.1,2.3c0.7,0.1,0.7-0.5,1.5,0.3c0.2-0.7-0.1-1.3-0.2-1.6c-0.1,0.5,0.2,1.1-0.3,1.2
											C291.7,222.7,291.8,221.9,292,221.4c0.2-0.1,0.4-0.2,0.6-0.5C292.4,220.9,292.2,221.1,292,221.4z M292.9,229.2
											c0.1,0.3,0.2,0.5,0.3,0.6l-0.2,0.1C292.7,229.7,292.8,229.4,292.9,229.2c-0.1-0.3-0.2-0.7-0.3-1c-0.6-0.2-0.9,1.3-1.2,1.7
											c0.1-0.7,0.6-1.4,0.2-2.3c-0.2,0.1-0.3,0-0.2,0.6c-0.1-0.4-0.1-0.9-0.2-1.3c0.8-1.5,1-0.1,1.4,1.3c0.1,0,0.3,0.1,0.4,0.4
											C293.1,228.7,293,228.9,292.9,229.2z M294.2,219l-0.2,0.7c-0.2,0.3-0.5,0.1-0.6,0.2C293.4,219.1,293.9,218.1,294.2,219z
											 M307.5,256c-0.5-0.2-0.1,1,0.8,1.6l-1,0.3c0.3-0.5-1.3-1.7-1.5-1.9C306.1,255.1,306.5,255.9,307.5,256z M351.7,272.4
											c0.2,1.1,2.9,0.8,3.5,1.2C353.8,273.7,350.7,273.5,351.7,272.4z M356.3,272.6c0.7,0.1,0.9,0,0.8,0.5
											c0.3,0.3,0.9,0,1.2,0.3C356.9,273.7,357.1,272.9,356.3,272.6c-0.2,0-0.4-0.1-0.7-0.1C356,272.5,356.1,272.5,356.3,272.6z
											 M329,266.8l-0.6-1.1l-1.4-0.4L329,266.8z M315.3,259.2c-0.1,0.5-1.5-0.4-1.7-0.8c-0.2,0.5,0.7,1.1,1.5,1.6
											c0.1,0.1,0.2,0.2,0.5,0.4c-0.1-0.1-0.3-0.2-0.5-0.4c-0.2-0.3,0.1-0.4,0.2-0.6l0.5,0.1c-0.3-0.2-0.7-0.5-1-0.8L315.3,259.2
											z M298.9,239.3c-0.8-0.7-0.6-0.9-0.6-1.6c0.1,0.1,0.3,0.3,0.4,0.6S298.9,239,298.9,239.3z M322.8,262.4
											c-1.6-0.4,0.4,1.1-0.7,1l0.8,0.3c-1.6,0-0.7-1-1.7-1.3l0.7,0.2c0.7-0.3-0.8-0.8-0.7-1.2
											C322,261.5,323.5,262.6,322.8,262.4z M298.8,237.8c-1-1.4,0.2-1.4,0.1-2.3C299.7,236.6,298.7,236.6,298.8,237.8z
											 M314.6,256.1h0.1c-0.3-0.3-0.6-0.6-0.9-1h-0.1C314,255.5,314.3,255.8,314.6,256.1z"/>
										<path class="st15" d="M292.5,237.3c-0.2-0.4-0.2-0.7-0.2-1C292.4,236.6,292.5,237,292.5,237.3z"/>
										<path class="st15" d="M360.1,277c0.1-0.1,0.2-0.2,0.4-0.3C360.5,276.9,360.4,276.9,360.1,277z"/>
										<path class="st15" d="M363.5,277.7h0.1c0,0,0.1,0,0.1,0.1L363.5,277.7z"/>
										<path class="st15" d="M471.9,294.7c0,1-0.6-0.4-0.9-0.8C471.3,294.3,471.8,294.1,471.9,294.7z"/>
										<path class="st15" d="M469.6,290.6c0.1,0.4,0.3,0.8,0.7,1.3C470,291.7,469.8,291.3,469.6,290.6z"/>
										<path class="st15" d="M471.9,293.5c-0.7-0.5-1.3-1.1-1.7-1.6C470.7,292.3,471.3,292.5,471.9,293.5z"/>
										<path class="st15" d="M460.4,282.6c0.1,0.4,0.5,0.8,0.9,1c0.3,0.3,0.6,0.4,0.6,0.4c-2.6-1.5-0.1,1-0.1,1.5
											C460.5,284.2,460.8,283.8,460.4,282.6z"/>
										<path class="st15" d="M457.4,280c0.3,0.2,0.5,0.3,0.7,0.4C457.8,280.4,457.6,280.2,457.4,280z"/>
										<path class="st15" d="M456.2,279.8c-0.8-0.6-0.8-1.3-1-1.9c1.3,0.4,1.5,1.5,2.2,2.1C456.8,279.6,456.2,279.2,456.2,279.8z
											"/>
										<path class="st15" d="M426.5,273.2c0.2,0.1,0.8,0,0.8,0.3h-1.6C425,273.4,426.2,273.2,426.5,273.2z"/>
										<path class="st15" d="M420.3,272.1c-1.4,0.1-0.6,0.7-1.3,0.6v-1L420.3,272.1z"/>
										<path class="st15" d="M420.7,267.2l0.4,0.1C420.9,267.2,420.8,267.2,420.7,267.2L420.7,267.2z"/>
										<path class="st15" d="M413.8,273.7l1.1,0.9C413.8,274.6,413.6,273.7,413.8,273.7z"/>
										<polygon class="st15" points="408.8,275.2 409.6,275.4 407.1,275.5 										"/>
										<polygon class="st15" points="402.4,275.6 402.2,275.9 400.4,275.9 										"/>
										<path class="st15" d="M332.7,271.2c0-0.9,2.6,0.2,3.5,0.1C335.3,272.3,334,270.4,332.7,271.2z"/>
										<path class="st15" d="M293.6,239.7c0.2,0.9,0.5,1.8,0.7,2.7C293.2,240.4,294.1,241.8,293.6,239.7z"/>
									</g>
								</g>
							</g>
						</g>
					</g>
					<g>
						<g>
							<g>
								<g>
									<g>
										<path class="st16" d="M423.7,331.6c0.2-0.4,0.6-0.7,0.7-0.7c0,0-0.1,0-0.1,0.1c-0.1,0-0.2,0.1-0.2,0.2
											C424,331.2,423.8,331.4,423.7,331.6z"/>
										<path class="st16" d="M423.5,331.8L423.5,331.8C423.5,331.9,423.5,331.9,423.5,331.8z"/>
										<path class="st16" d="M204.5,329c-0.3-0.1-0.5-0.2-0.6-0.2C204.2,329,204.4,329,204.5,329z"/>
										<path class="st16" d="M246.6,329.8c0,0.1,0,0.1,0,0.1V329.8z"/>
										<path class="st16" d="M418.8,330c0.1,0,0.2,0,0.3,0.1C419.2,330,418.9,330,418.8,330z"/>
										<path class="st16" d="M195.6,321.2c-0.1,0-0.1,0-0.2,0C195.5,321.2,195.5,321.2,195.6,321.2z"/>
										<path class="st16" d="M393.9,325.8c-0.1,0-0.2,0-0.3,0C393.7,325.8,393.8,325.8,393.9,325.8z"/>
										<path class="st16" d="M255.1,339.2c0.1-0.1,0.2-0.1,0.3-0.2C255.2,339.1,255.1,339.1,255.1,339.2z"/>
										<path class="st16" d="M255.1,337.9c-2.1,0.5,0.5,0.7,0.2,1.1c0.6-0.1,1.8-0.1,1.2-0.4c1.2,0.7,3.3-0.6,4.6-0.1
											c0-0.1-0.7-0.3,0.1-0.5c1.2-0.2,1.2,0.2,1.7,0.3c0.3-0.3,2.2-0.6,2-0.4c0.8-0.3-0.9-0.7,0.2-1.1c0.7-0.6,1.8-0.2,2.7-0.5
											c1.1,0.3-1.1,0.4-1.5,0.6l3.1-0.5c0.9,0.2-0.4,0.6-1.3,0.6c1.3,0.2,2.8-0.2,3.1-0.7c0.8,0,1.2-0.1,1.9,0
											c-0.7,0.3-0.6,1.1-1.7,1.3c-1.9,0.1,0.6-0.6-1-0.6l-0.1,0.5c-0.7-0.2-1.2,0.2-1.9,0.3c-0.4-0.1,0.1-0.2,0.3-0.3
											c-1.3,0.2-2.4,0-3.3,0.6c1.8,0.3,4.4-0.5,5.3-0.1l3.5-1c0-0.2-1.3-0.4-0.3-0.8c0.5,0.5,1.5,0.6,2.9,0.6
											c-0.6-0.5,2.1-0.7,1.4-1.1c-0.6,0.4-1-0.1-1.1-0.1c1.3-0.2,0.1-0.6,0.8-0.7c2.4-0.1-0.1,0.4,2.3,0.4c-0.5,0.3-1.7,1-3,1.4
											c0.1,0.3,1.3-0.2,1.9,0.1c-0.8-0.2,0.5-0.6-0.2-0.7c1.9-0.4,4-1.2,6.3-1.5c-0.3,0.9-3.8,1-3,1.9c1.1-0.2,1.1-0.6,2-0.7
											c0.8,0.5,2.6-0.2,4.2-0.3l-0.7-0.2c0.6-0.3,1.7-0.2,2.3-0.2l-0.2,0.1l0.7-0.2c0.1,0,0.1,0,0.1,0.1c0.7-0.3,2.6-0.2,4-0.5
											c0-0.4-1.4,0.1-2.1,0.1c-0.2-0.1-1.5-0.2-0.9-0.5c1.7-0.1,2.9-0.7,4.9-0.8l-0.6-0.1c0.6-0.3,1.5-0.2,2.4-0.3
											c1.7,0.2-1.2,0.7-0.2,0.8c-0.6,0.4-1.8,0.1-2,0.6l1.1,0.5c0.9-0.4,1.9,0.1,2.5-0.1l-0.7-0.2c0.1-0.5,0.8-0.2,1.1-0.1
											l-0.5-0.6c-1-0.1-1.6,0.6-2.4,0.2c1.7-0.3,1.3-0.8,3.4-1c0.1,0.3-0.4,0.1-0.6,0.3c0.7,0.1,1.5-0.4,2.6-0.3
											c-0.7,0.2-1.7,0.5-0.8,0.8l0.6-0.5c0.5,0,0.3,0.3,0.6,0.3c0.8,0-0.2-0.5,1-0.5c0.2,0.1,0.6,0.2,0.4,0.3
											c1.4-0.1,0.7-0.2,2-0.5c-1.2,0.1-1.3-0.7,0-0.8c1.7,0,2.9-0.5,4.1,0.1l0.8-0.4c-0.5,0.5,1.1,0.1,1.6,0.2
											c0.2,0.5-2.6,0.1-2.5,1c1.1,0,0.7,0.3,0.3,0.6c1.2-0.1,0.4-0.6,0.9-1c0,0.2,2.1,0,1.4,0.5c1,0,1.2-0.6,2-0.5
											c-0.1,0.2-0.2,0.5-0.1,0.7c0.1-0.2,1.1,0,1.3,0c-0.2-0.1,0.3-0.5-0.6-0.3c0.2-0.4,2.1-0.1,2.1-0.4c0.1,0.5,1.9,0,2.9,0.2
											c-0.1-1.1-1.7,0.5-2.1-0.4c1.2-0.4,4.2-0.2,6.3-0.7c1.8,0.2,0,0.4,0.4,0.8c-1.6,0.2-2-0.1-3.4,0.2c1.5,0.1,4.1,0,5.2-0.4
											c1.7-0.1,1.9,1.1,3.9,0.7c-0.3-0.3-0.2-0.4-0.9-0.5c0.5-0.1,1.2,0,1.8,0c0.4-0.2-0.9-0.3-0.1-0.5c0.3,0.1,1,0.1,0.9,0.3
											h-0.1c1.9-0.4,1.4,0.8,3.1,0.1c-0.1-0.2-0.5,0.1-0.9-0.1c-0.3-0.3,0.7-0.7,1.5-0.8c-0.1,0.2,0.7,0,1.2,0.1
											c0.4,0.4-1.4,0.1-1.6,0.4h1.5L337,332l1.6-0.4c-1.1,0.1-0.5-0.5-0.1-0.6c1.1,0.1,2.3,0.1,2.1,0.6c0.1-0.5,1.5-0.4,2.5-0.5
											c-1.1-0.2-0.1-0.4,0.2-0.5l1.6,0.5c-1.7,0.1,0.4,0.4,0,0.7c-0.5,0.5-1.5,0.2-2.4,0.2c1.8,0.8,2.5-0.5,4-0.1
											c0,0.2-0.1,0.5-0.8,0.4c0.3,0.1,1.4-0.4,2.4-0.2c-0.3-0.1-0.9-0.6,0.2-0.7l1.4,0.5c1.6,0.1,0.5-0.5,1.9-0.8l-0.9-0.4
											c0.1-0.5,1.8,0,1.8-0.5c-0.8,0-1.3,0.4-2.1,0.2c-0.3-0.5,1.1-0.2,1.6-0.5c1.8,0.2,1.4,0.2,2.7,0.6c0,0.8-2.2,0.9-1.9,1.9
											c1.7-0.1,4.2-0.3,5.3,0c1.5-0.2,1.4-0.8,1.2-1.2c0.6-0.1,0.9,0,1.4,0.1l-0.7,0.2c1.9-0.2,3-0.4,5-0.4
											c1.1-0.1,0.7-0.6,0.4-0.9l1.2-0.1l-0.2-0.1c0.3-0.5,1.4-0.3,2.2-0.2c0,0.2-0.5,0.2-0.5,0.4c0.7,0.2,1.8,0.2,2.4,0
											c0,0.2-0.5,0.7-1.4,0.5c-0.1-0.1,0-0.1-0.1-0.2l-1.5,0.2c1.7-0.2,2.7,0.4,2.6,0.9c1.7-0.2-1.3-0.6,0.7-0.7
											c2.6,1.1,5-0.1,6.4,1.4c1.2-0.2,2.7-0.7,4.6-0.6c0-0.4,1.3-0.1,1.1-0.6c-1.8-0.6-3.4,0.7-4.8-0.2
											c-0.8,0.2-0.6,0.5-0.9,0.7c-0.7,0-1.4-0.1-1.5-0.3c1.7-0.2,0.5-1,2.6-0.9c-0.3-0.4-2-0.3-2.7-0.4c0.2-0.2,0-0.4-0.5-0.6
											c0.6-0.3,1.8-0.6,2.4-0.8c-0.2,0.2,0.2,0.3,0,0.4l2.2-0.5c0.7,0.3,0.8,0.6,0.5,0.8c1.2,0.2,3.3-0.3,3.3,0.3
											c1.6,0-0.5-0.4-0.6-0.6h0.1h-1.7c-0.1-0.7,1.9,0.3,2.2-0.4c0.3-1.3,2.3,0.5,3.5,0.4l-1.4,0.9l1.2-0.1
											c-0.7,0.3-0.7,1-1.8,1.3c1.6,0.1,3.9,0.6,5,0.4c0.4,0.4,0.5,0.7,0.3,1c1.7-0.5,2.5,0.5,3.9,0.6c1.5-0.3-1.5-0.6-0.3-1
											c0.4,0.3,1.3,0.1,1.7,0.1c-0.5,0.1-2-0.3-3.1-0.5c0.8,0.1,0.8-0.4,1-0.6l-1.4-0.2c0.1-0.6,1.7,0,2.3-0.2
											c-0.4,0.5-0.2,0.5-0.7,1c1.2-0.1,2.9,0,3.9,0.4c0.6,0.3-0.5,0.2-0.8,0.3c0.2,0.4,1.2-0.1,1.4,0.3c-0.2,0.3-0.7,0-1.1,0
											l3.4,0.4c0,0.2-0.9,0.2-1.4,0.1c1,0.3,1.8,0.3,3.1-0.4c1.2,0.3,2.5,0.7,2.1,1c0.5-0.1,0.2-0.3,0.2-0.5
											c1.6,0.2,1.8-0.5,2.8-0.4l-0.7-0.4c1.5,0.5,0.4-0.6,1.7-0.2c-0.3,0.4-0.2,0.9,0,1.3c0.3-0.4,1.1,0,1.7,0.1
											c-0.3-0.4,1.3-0.3,0.4-0.8c1.4-0.2,2,0.4,3,0c-0.6-0.2,1.2-0.3,0.7-0.7c1.3,0.1,2.2,0.7,1.8,1.1c-0.4-0.1-1.2-0.3-1.1,0
											l2.4,0.1c0.6,0.3,1.3,0.4,1.4,0.9c0.8-0.5,2.2,0.6,3,0c-1,0.3-1.5-0.3-1.8-0.4l0.4-0.1c-0.1,0-0.1,0-0.2,0l1.1-0.7
											c-1-0.4-0.2,0.5-1.6,0.4c-1.1-0.9,2.9-0.9,1.6-1.5c-1-0.3-0.9,0.4-1.8,0.6h0.2l-2,0.1c-0.1-0.3,0.5-0.4,0.5-0.4
											c-2.3-0.2-2.7-0.7-5.2-1c0.2,0.1,0.6,1-0.5,1c-0.8,0.1-0.9-0.4-1.5-0.5c0.4-0.1,0.8-0.5,1.3-0.1v-0.6c2-0.5,1-1.1,3.6-1.1
											c0.2-0.4,2-0.4,3.4-0.2l-0.6-0.4c1.5-0.6,0.2,0.6,2.1,0.2c0.4,0.4,0.8,0.8,1.1,1.2c0.3,0.4,0.4,0.8-0.2,1
											c1.3,0.2,1.7-0.2,2.6-0.5c0.4,0.2,0.4,0.3,0.3,0.5s-0.3,0.5-0.1,0.7c0.5-0.2,1-0.6,1.1-0.9c0.2-0.4,0.1-0.5-0.3-0.4
											c0.2-0.2,0.4-0.4,0.4-0.7c0-0.3-0.2-0.6-0.4-0.8c0-0.1,0.2,0,0.3,0.1c0.2,0.1,0.3,0.4,0.3,0.6c0-0.2-0.1-0.5-0.3-0.7
											c-0.2-0.2-0.5-0.3-0.7-0.3c-0.5-0.1-0.9,0-1.1,0.2c0.1,0,0.5-0.1,0.7,0c-0.3,0-0.9,0.1-1,0.3l0,0c-0.1-0.1,0,0,0,0l0,0
											h0.1h0.1c0.1,0,0.1,0,0.2,0l0,0l0,0h-0.1c0,0,0,0-0.1,0c-0.2,0-0.1,0-0.1,0c0.1,0.1,0.1,0.2,0.2,0.2c0,0,0,0,0.1,0
											c0.1,0.1,0.3,0.1,0.7,0c-0.1,0.1-0.3,0.4-0.6,0.3c0.2,0.2,0.4,0.3,0.5,0.4l0,0c0,0-0.1,0.1,0,0c0-0.1,0.1-0.1,0.2-0.2
											l0.1-0.1l0.1-0.1c0,0,0,0,0.1,0h0.1c-0.1,0-0.1,0-0.2,0.1s-0.2,0.2-0.3,0.3c-0.1,0.1-0.2,0.2-0.3,0.3c0,0.1,0,0.1,0,0.1
											l0,0c-0.1,0.1-0.2,0.2-0.2,0.2l0,0l0,0c0-0.1,0.1-0.2,0.1-0.3c0.1-0.2,0.3-0.4,0.4-0.5s0.1-0.1,0.2-0.2l0.1-0.1
											c0.1,0,0,0,0,0s0,0-0.1,0s-0.1,0-0.2-0.1l0,0l0,0l-0.7-0.3l0,0l0,0l0,0l0,0c0.1,0-0.1,0-0.1-0.1c0,0,0,0-0.1-0.1l-0.1-0.1
											c0,0-0.1,0-0.2,0.1c-0.2,0.1-0.5,0.2-0.3-0.2c0,0.3-0.6,0.4-1.1,0.2c0.1-0.3,1-0.5,1-0.9c0,0,0.1-0.1,0-0.1
											c0.1,0.2,0.2,0.3,0.2,0.4c0.2,0.3,0.2,0.4,0.3,0.4c0.1,0.1,0,0.1-0.1-0.1c0-0.1-0.1-0.2-0.2-0.3c0,0-0.1-0.2-0.1-0.1v0.1
											c0,0.1,0,0.2,0.1,0.2c0,0,0-0.1,0.1,0.1l0.2,0.2c0,0.1,0.1,0.1,0.1,0.1s0.1,0.1,0.1,0l0,0l0,0l0,0l0,0l0,0l0.7,0.3l0,0
											c0.1,0.1,0.2,0.1,0.3,0.1l0,0c0.1,0-0.1,0-0.1,0.1l0,0h0.1c0,0,0,0-0.1,0s-0.2,0-0.2-0.1c0.1,0,0.2,0.1,0.3,0.1l0,0l0,0
											c0,0,0,0-0.1,0c0,0-0.1,0-0.1,0.1c-0.1,0-0.2,0.1-0.2,0.2c-0.1,0.1-0.3,0.4-0.4,0.6c-0.3,0.5-0.4,0.9-0.3,0.8
											c0,0,0-0.1,0-0.2v-0.3c0-0.1,0-0.3,0-0.4c0-0.2,0-0.3-0.1-0.5c-0.1-0.3,0.1,0,0.1,0.5c0,0.2,0,0.5,0,0.6s0,0.2,0,0.3
											c0-0.1,0-0.2,0-0.3c0-0.3,0-0.5,0-0.7s0-0.2,0,0.1c0,0.2,0,1,0,1l0,0v-0.1v0.1v-0.1c0-0.1,0.1-0.3,0.2-0.5
											c0.2-0.4,0.5-0.9,0.8-1c0.1-0.1,0.2-0.1,0.1-0.1c0,0,0,0-0.1,0c0,0-0.1,0,0,0h0.1l0,0h-0.1c-0.1,0-0.1,0-0.2-0.1l0,0l0,0
											l-0.7-0.3l0,0l0,0l0,0l0,0l0,0c0,0-0.3-0.2-0.5-0.6c-0.1-0.2-0.2-0.4-0.3-0.7c-0.1-0.2-0.2-0.5-0.3-0.8c0,0,0,0.1-0.1,0.1
											c-0.1-0.1,0-0.2,0-0.2l0,0c0.1,0.3,0.2,0.5,0.2,0.7c-0.1-0.2-0.2-0.4-0.2-0.7c0-0.2,0-0.1,0-0.1l0,0c0,0-0.1,0-0.1,0.1
											c-0.1,0-0.3,0.1-0.6,0.1l0.4,0.3c-0.5-0.1-0.9,0-1.5,0.2c-0.6,0.1-1.3,0.4-1.9,0.4c0.2-0.5,1.3-0.5,2.2-0.7
											c-0.8-0.7-0.6,0.3-1.9,0.1c-0.2-0.1-0.2-0.2-0.1-0.4l-1.1,0.4c-0.3-0.1-0.1-0.2,0-0.2c-1.9,0.4,0,0.8-2.5,0.8
											c1.5,0.4,1.3-0.3,2.6-0.1c0.7,0.5-1.5,0.6-1.9,0.8c-1.2-0.2-1.3-1.1-2.9-0.8c1.1-0.2,0.1-0.5,1.6-0.4
											c0.9-0.2-0.4-0.3-0.6-0.6c-0.4,0.1,0.2,0.6-0.9,0.4l0.1-0.1l-1.9,0.4c-1.7-0.4-3.9,0.3-5.1-0.4l0.2,0.6
											c-1.1,0-2.6-0.2-3.4-0.1c0.2-0.3,0.9-0.3,1.7-0.3c-1.9-0.3-3.7,0-5,0.3c0.9,0.5,1.1,0.5,1.9,0.8c-1.3,0.7-1.5-0.6-3.1-0.3
											c0-0.6,0.5-0.4,0.2-1c-0.7,0.3-1.8,0.2-2.6,0.4c-0.4-0.6,0.4-1,2.1-0.9c1.2,0.6,2.7-0.2,3.7,0.4l-0.6-0.4
											c1.3-0.1,2,0.1,3.2-0.1l-0.1,0.1l0.6-0.5h-0.6c0.4-0.3,1.7-0.7,2.1-0.7c-1.8-0.1-2,0.8-2.9,1.2c-1.6-0.2-2.2-1.2-3.3-0.8
											c-0.1-0.3-1-0.6-0.2-0.8c0.9-0.1,1.5,0.3,1.6-0.1c-1-0.1-0.6-0.3-2-0.3c-0.3,0.5-1.4,0.9-2.5,1.2
											c-1.1,0.2-2.5,0.1-3.4-0.1c1.1,0,2.2-0.4,2-0.7c-0.7,0.5-2.1-0.6-1.8,0.2c-1.3-0.1-3.4-0.2-3.5-0.8
											c1.2-0.2,2.4,0.3,3.4,0.2c-0.3,0-0.5-0.2-0.4-0.3l1.5,0.2c-1.1-0.4-0.9-0.5-2.3-0.6c0.1,0.1,0.3,0.2,0.1,0.2
											c-0.4,0-0.8,0-1.2-0.1v-0.6c-1.1,0.2-3.2-0.6-5.2-0.3l0.2-0.1c-1.6-0.2-1.8,0.9-3.5,0.9c0.5-0.2,0.3-0.5,0.2-0.7
											c-0.9,0.2-1.3-0.2-2.2-0.4c1,0.4-0.7,0.6,0,0.8c0,0.6-1.8,0.5-2.7,0.4c-0.5-0.7,2.8-0.3,1.5-1.1c-0.9-0.1-1.2,0.3-0.5,0.4
											c-1.1-0.1-2.9-0.3-3.7-0.8c-1.4,0.5-1.9,0.2-2.8,0.8c0.7,0,0.8-0.5,1.7-0.2l-1,0.5c-1.3,0-2.4-0.5-3.3-0.6l1-0.2v0.1
											c0.4-0.2,1.6,0,1.5-0.4c-0.9,0.5-1.6,0-2.7,0.3v-0.1c-2,0.3-3.4-0.9-4.7,0.1c0.4,0,1.1,0.4,0.9,0.6
											c-0.5-0.3-1.7-0.2-1.6-0.5l0.4-0.1c-1.1-0.1-1.8-0.2-2.2-0.1c-0.3,0.4,0,0.6-0.8,0.8c-2-0.3,0.8-0.8-0.5-1.2l-1.9,0.3
											l-0.4-0.3c-2.8-0.4-4.9,0.7-7.9,0.7c0-0.6,2.1-0.8,2.8-0.8c-0.9-0.5-2.2,0.2-3.5-0.2c-1.1-0.1-2,0.4-1.8,0.7
											c-1.4,0.2-1-0.3-1.2-0.4c-0.5,0.6-2.2,0.4-3.4,0.5l-0.1-0.3l-1.8,0.4c0.5,0,0,0.3,0.1,0.6H342c1.7,0.9,3.9-0.7,5.7,0.4
											c-0.5,0.1,0.2,0.3-0.4,0.4c-0.5,0-0.5-0.1-0.6-0.2c-0.3,0.3-1,0.5,0,0.5c0,0.7-2,0.5-3.3,0.8c-1-0.5,1.1-0.7,1.6-1
											c-0.5,0.1-0.9,0.4-1.6,0.2l0.2-0.5c-1.8,0.3-0.5,0.5-0.9,1c-0.5,0.7-1.6,0-2.1,0l0.5-0.1c-1.4-0.2-1.7,0.4-3,0.3l-0.6-0.4
											c1.6,0.5,1.9-0.8,2.9-0.5c-2.3-0.5,0.5-1.1,1.2-1.6c-1,0.1-1.9,0.1-2.5-0.2c-1.5,0.7-3.1-0.2-4.5,0.6
											c-0.8-0.1,0.7-0.4-0.1-0.4c-1.5,0-3.1,0.1-4.7,0.4c-0.8,0-0.7-0.2-0.9-0.5c-4-0.2-5.5,1.1-9.8,0.9l0.6-0.3
											c-0.9,0-1.7-0.1-2.1,0.3c-1.2-0.9-3.8,0.7-5.3-0.2c-1.9-0.1-2,0.7-3.5,0.9c0-0.2,0.4-0.6-0.4-0.7
											c-2.5,0.3-4.8,0.5-7.2,0.7c-2.4,0.2-4.8,0.4-7.5,0.7c0-0.1,0.3-0.2,0.4-0.2c-3.5,0.2-6.9,1.3-9.8,1.3
											c-0.5,0.2-2.2,0.5-1.6,0.8c0.7,0,0.8,0.5,0.8,0.7c-2.5,0.6-1.3-0.6-3-0.3c-0.6-0.7,1-0.6,1-1.2l-2.5,0.7
											c-1.4-0.1-2.8,0.4-4,0.2c0.6,0,0.1-0.6,1.1-0.4c-0.1,0,0,0.1-0.2,0.1c2.1-0.1,1.1-0.4,2.9-0.8c-1.6,0.3-3.8,0.7-5.3,0.7
											c0.4,0.5-1.2,0.3-1.5,0.7h-0.1c0,0.2-0.9,0.4-1.1,0.5l-0.4-0.6c-0.6,0.1,0.2,0.3-0.4,0.4c-0.9,0.2-4.1,0.6-4.3-0.1
											c-1.1,0.1-1.4,0.5-2.5,0.5c0.1-0.2,0.3-0.3,0.4-0.3c-2.4,0.1-5.3,0.5-7.5,0.2c-1.8,0.3-3.4,0.4-4.5,0.9
											c0.5-0.1,1.9,0,1,0.4c-0.5,0.3-1.2,0.2-2,0.3c0.2-0.3-1.9-0.3-0.4-0.5c-0.4-0.7-3.2,0.2-3.2-0.5c-0.4,0.2-2.5,0.1-3.3,0.4
											c-0.2-0.3,1.2-0.2,1.2-0.4l-1,0.1v-0.2c-1.8-0.2-2.2,0.6-3.3,0.7v-0.1l-0.8,0.1l0.9-0.5c-1.2,0-1.8,0.5-3.2,0.5l-0.1-0.2
											c-0.3,0-0.5,0.1-0.8,0.1c0.1,0,0.2-0.1,0.1-0.2c-0.8,0.5-2.5,0.1-3.2,0.4c-0.5-0.2-0.9-0.9-1.6-0.5l0.2-0.6
											c1.7,0.2,0.6,0.6,2.4,0.6c-1.2-1-5-1.4-7.4-2c-1,0-2.3-0.4-3.5-0.7c-1.1-0.3-2.2-0.6-2.7-0.2l0.3-0.3
											c-1-0.5-2.1-0.9-3.1-1.4c-2.8-0.8-5.2-2.4-7.4-3l-0.3-0.6c-0.6,0-1.4-0.3-2.1-0.6c-0.4-0.2-0.8-0.4-1.2-0.6
											s-0.8-0.5-1.2-0.7c-0.8-0.5-1.5-1-2.2-1.3c-0.7-0.4-1.3-0.6-1.8-0.6c-0.7-1.1,0.6-0.1,0.9-0.2c-0.3-0.4-0.9-0.6-1.4-1
											c-0.5-0.3-1-0.8-1.1-1.3c0.2-0.1,1,0.8,0.7,0.3c-0.1-0.8-0.9-0.4-1.1-1.3c-0.1,0.5-1.4-0.4-2.2-1.3
											c0.1,0.2,0.1,0.2,0.1,0.3c-0.2,0.3-0.6-0.4-0.9-0.8c0,0,0.1,0,0.2,0.1c-1.9-2.3-3.5-5.2-4.5-8.4c-1.1-3.1-1.6-6.5-1.6-9.8
											c0.1,0.4,0.3,0.8,0.4,1.2c-0.3-0.9-0.3-2.6-0.2-3.1v0.1c0.6-1.8-0.7-1.9,0-3.3l0.1,0.3c-0.1-2.1,0.7-3.3,0.3-5.4
											c0.3-1.6,0.6-1.4,1-2.5c0-0.9-0.3-1.4-0.4-1.5l-0.1,0.5c-0.4,0.5-0.3-1-0.4-1.7c-0.6,0.5-1.5,0.2-2.2,2
											c0.1,1.4-1,1.3-1,2.9c0.8,0.9-0.6,2.3,0.1,3.7c-0.5-0.8-0.3,1.7-0.9,0.5c-0.4,0.6,0.5,3.1,0.1,4.3
											c-0.1-0.2-0.2-0.1-0.3-0.4c0.4,1.6-0.3,1.1-0.2,2.4l0.5-0.1c0.2,0.5-0.2,0.6,0,1c0-0.3,0.2-1,0.5-0.7
											c0.2,0.5,0.4,1,0.5,1.6c-0.2,0-0.4-0.4-0.4-0.7c0,0,0.1,1.3-0.2,1.4c-0.2-0.4-0.3-1-0.6-1.4c0,1.7-0.2,0.2-0.5,1.1
											c0.6-0.3,0.4,1.5,0.7,2.4c-0.2,0.1-0.2-0.6-0.4-0.9c-0.9,2,0.6,2.7,0.9,5c-0.1,0-0.2-0.3-0.3-0.4c0.5,1,0,2,0.6,2.6
											c0.2,1.1-0.6,0.4-0.1,2c0.4-0.7,0.6,1.9,1.3,1.7c0,0.5,0.1,0.9,0.1,1.4c0.8,0.9,0.9-0.8,2,1.2c0.7,1.9-1.1,0.4-0.9,1.6
											l0.6,0.3c0.1,0.3,0.2,0.7,0.3,1l-0.1-0.1c0.4,0.4,1,1.4,0.8,1.6c-0.2,0-0.6-0.6-0.7-0.5c0.4,0.3,0.8,1.3,1.3,2.2
											c0.5,0.9,1.1,1.8,1.9,1.8c0.3,0.6,1.1,1.5,0.7,1.6c0.7,0.1,1.8,2,2.6,2.4c-0.2,0.1,0.2,0.7,0.8,1c-0.5-0.7,0-0.5,0.6-0.3
											c0.3,0.8,2.1,1.7,2,2.3c1.1,0.4,1-0.2,1.4-0.4c0.4,0.7,2.3,1.8,1.6,2.2c-0.5-0.4-1.5-1.2-1.6-0.7c0.8,0.8,0.5,0.1,1.4,0.6
											c-0.1,0.1,0.3,0.7,0.1,0.8c0.5,0.2,1.2,0.6,1.8,1.1c-0.9-0.9,0.9,0,0.4-0.6l-1.3-0.2c-1.3-0.7-0.1-0.5-0.5-0.9
											c1.1,0.6,1.7,0.6,2.2,0.7s1,0.1,2.2,0.4c0.3,0.3,1,0.8,1.2,0.9c-0.7-0.3-0.8,0.3-0.5,0.6c1.4,0.1,2,1.3,3,1.8
											c-0.8-0.5-0.2-0.7,0.2-0.7c2.2,0.5,0.7,0.5,1.5,1.1c3.2,1.1,5.1,2.5,7.9,2.8l-1.1-0.9l-0.6,0.4c-0.9-0.7,0.5-1.1,1.1-1.3
											c0.1,0.2,1.7,0.5,1,0.6l1.6,0.2c-0.2-0.3-1.2-0.4-0.4-0.5c0.5,0.3,2.1,0.7,1,0.8c0.8,0.2,1.9,0.2,1.8-0.1
											c1.4,0.2-0.3,0.6-0.9,0.7c1.1,0.3,0.8,0.7,0.5,0.8c0.5,0.1,1,0.2,1.5,0.2c-0.4,0.1-0.4,0.3-0.8,0.4c1,0.4,1.8-0.1,2.6,0.5
											l0.5-0.4c2.7,0.7,2.4,0.8,5,1.1l-0.4-0.4c2-0.4,1.4,0.6,4,0.6c1.5-0.1,2.4-0.2,2.3-0.8c0.9-0.1,1,0.2,1.4,0.4
											c0.7-0.3,2.1-0.8,3.1-0.4c-0.7,0.2-1.3,0.3-1.9,0.3c0.2,0.5,2.3,0.2,3.3,0.4c0.8-0.2,3.2-0.9,4.5-1.4
											c-0.6-0.4-0.4-1,0.8-1.5c-0.2,0.3,1.6,0.3,2.5,0.5c-0.4,0.3,1.9,0.7,0.1,0.9c-0.5-0.1-0.8-0.6-1.5-0.4
											c0.4,0.3,1.6,0.6,2.7,0.9c-0.1,0.2-0.7,0.4-1.3,0.4C255.4,338.1,255.2,338,255.1,337.9z"/>
										<path class="st16" d="M418.8,330h-0.2l0.2,0.1C418.7,330.1,418.8,330.1,418.8,330z"/>
										<path class="st16" d="M290.5,335.2c0.1,0,0.2-0.1,0.2-0.2C290.6,335.1,290.5,335.1,290.5,335.2z"/>
										<path class="st16" d="M315,333.4v-0.1C314.9,333.3,314.9,333.4,315,333.4z"/>
										<path class="st16" d="M420,333.9l-0.4,0.1C419.7,333.9,419.8,333.9,420,333.9z"/>
									</g>
								</g>
							</g>
						</g>
					</g>
				</g>
			</g>
		</g>
	</g>
</g>
</svg>
